<?xml version="1.0" standalone="no"?>
<!DOCTYPE svg PUBLIC "-//W3C//DTD SVG 20010904//EN"
 "http://www.w3.org/TR/2001/REC-SVG-20010904/DTD/svg10.dtd">
<svg version="1.0" xmlns="http://www.w3.org/2000/svg"
 width="229.000000pt" height="220.000000pt" viewBox="0 0 229.000000 220.000000"
 preserveAspectRatio="xMidYMid meet">

<g transform="translate(0.000000,220.000000) scale(0.100000,-0.100000)"
fill="#000000" stroke="none">
<path d="M315 2080 c-111 -17 -191 -63 -224 -127 -26 -52 -3 -139 43 -161 12
-6 79 -36 151 -67 72 -31 180 -84 240 -117 122 -68 355 -218 355 -230 0 -4
-44 -55 -97 -114 -199 -216 -415 -510 -484 -657 -30 -65 -31 -72 -27 -165 9
-193 74 -292 192 -292 66 0 86 24 160 190 80 184 144 299 261 475 92 138 251
345 265 345 14 0 219 -201 321 -315 130 -147 249 -296 394 -495 62 -85 125
-166 139 -179 l26 -24 0 36 c0 53 -52 246 -100 369 -99 258 -246 495 -458 742
l-94 108 29 30 c96 104 398 348 673 545 47 34 96 73 109 87 l24 26 -34 0 c-45
0 -243 -51 -349 -90 -182 -66 -401 -186 -588 -322 -74 -53 -85 -58 -101 -46
-10 7 -68 53 -129 102 -161 130 -334 249 -437 300 -98 49 -166 61 -260 46z"/>
</g>
</svg>
